<?xml version="1.0" encoding="UTF-8"?>
<svg version="1.1" xmlns="http://www.w3.org/2000/svg" width="1408" height="736">
<path d="M0 0 C464.64 0 929.28 0 1408 0 C1408 242.88 1408 485.76 1408 736 C943.36 736 478.72 736 0 736 C0 493.12 0 250.24 0 0 Z " fill="#FBFBFB" transform="translate(0,0)"/>
<path d="M0 0 C1.09014404 0.00346436 2.18028809 0.00692871 3.3034668 0.01049805 C11.79368774 0.12452416 19.45893948 1.15237728 27.6875 3.3125 C29.19376953 3.61994141 29.19376953 3.61994141 30.73046875 3.93359375 C57.36193594 9.59761781 81.65438703 29.30254825 96.6875 51.3125 C109.43964553 71.17608625 115.90463032 92.17999292 115.8125 115.75 C115.81636719 116.73548828 115.82023438 117.72097656 115.82421875 118.73632812 C115.81151056 128.32465552 114.8355298 136.8296042 112 146 C111.7330835 146.87068115 111.46616699 147.7413623 111.19116211 148.63842773 C106.10422116 164.84885271 98.65825353 178.32081818 87.6875 191.3125 C87.02234375 192.12460937 86.3571875 192.93671875 85.671875 193.7734375 C68.36097905 214.09771163 43.71671697 225.87763997 17.6875 230.3125 C16.759375 230.49554688 15.83125 230.67859375 14.875 230.8671875 C-14.32138063 234.94609362 -44.15341429 226.07826994 -67.75 208.875 C-69.6256534 207.38074688 -71.4800549 205.85943666 -73.3125 204.3125 C-74.30507813 203.48234375 -75.29765625 202.6521875 -76.3203125 201.796875 C-96.38345961 184.49918005 -109.07895797 161.35335205 -113.3125 135.3125 C-113.48450928 134.38566406 -113.65651855 133.45882812 -113.83374023 132.50390625 C-117.66518226 106.96356448 -112.80497971 80.81001878 -100.3125 58.3125 C-101.23482422 57.92578125 -101.23482422 57.92578125 -102.17578125 57.53125 C-106.06468916 55.31307949 -107.35596936 51.22556128 -109.3125 47.3125 C-109.96124658 41.2991182 -109.52148147 35.5403771 -106.3125 30.3125 C-101.10033712 24.58137718 -96.29355168 21.32895693 -88.5 20.9375 C-83.96797835 21.00504131 -80.93983354 22.08553817 -77.1015625 24.4375 C-75.04555207 25.60540056 -75.04555207 25.60540056 -71.3125 25.3125 C-69.20073198 23.8937947 -67.24278556 22.44460495 -65.25 20.875 C-46.35155077 6.73664837 -23.49421269 -0.12279525 0 0 Z " fill="#FAFAF9" transform="translate(703.3125,262.6875)"/>
<path d="M0 0 C0.86367188 0.49628906 1.72734375 0.99257813 2.6171875 1.50390625 C20.94853641 12.9528448 33.39324403 31.65989605 38.62109375 52.47265625 C42.89439874 72.48351203 38.8038988 94.20691044 28.375 111.73046875 C14.37485807 132.63345843 -3.55900215 144.41808813 -27.8515625 149.609375 C-50.4168712 152.40904109 -72.08546444 148.21051156 -90.3125 134.1875 C-91.89650196 132.81611576 -93.45850297 131.41899396 -95 130 C-95.90234375 129.20078125 -96.8046875 128.4015625 -97.734375 127.578125 C-112.48483642 113.80559472 -121.3431896 94.95655099 -122.25390625 74.71484375 C-122.78075807 52.32490181 -116.80542206 31.71995648 -101.18237305 15.22705078 C-99.80053293 13.80598453 -98.40059391 12.40258622 -97 11 C-96.26910156 10.2575 -95.53820312 9.515 -94.78515625 8.75 C-85.21996981 -0.36987981 -73.74522827 -5.88689708 -61 -9 C-60.32283936 -9.17587646 -59.64567871 -9.35175293 -58.94799805 -9.53295898 C-38.45636403 -14.56250006 -17.94663066 -10.3729659 0 0 Z " fill="#010101" transform="translate(743,309)"/>
<path d="M0 0 C1.09014404 0.00346436 2.18028809 0.00692871 3.3034668 0.01049805 C11.79368774 0.12452416 19.45893948 1.15237728 27.6875 3.3125 C29.19376953 3.61994141 29.19376953 3.61994141 30.73046875 3.93359375 C57.36193594 9.59761781 81.65438703 29.30254825 96.6875 51.3125 C109.43964553 71.17608625 115.90463032 92.17999292 115.8125 115.75 C115.81636719 116.73548828 115.82023438 117.72097656 115.82421875 118.73632812 C115.81151056 128.32465552 114.8355298 136.8296042 112 146 C111.7330835 146.87068115 111.46616699 147.7413623 111.19116211 148.63842773 C106.10422116 164.84885271 98.65825353 178.32081818 87.6875 191.3125 C87.02234375 192.12460937 86.3571875 192.93671875 85.671875 193.7734375 C68.36097905 214.09771163 43.71671697 225.87763997 17.6875 230.3125 C16.759375 230.49554688 15.83125 230.67859375 14.875 230.8671875 C-14.32138063 234.94609362 -44.15341429 226.07826994 -67.75 208.875 C-69.6256534 207.38074688 -71.4800549 205.85943666 -73.3125 204.3125 C-74.30507813 203.48234375 -75.29765625 202.6521875 -76.3203125 201.796875 C-96.38345961 184.49918005 -109.07895797 161.35335205 -113.3125 135.3125 C-113.48450928 134.38566406 -113.65651855 133.45882812 -113.83374023 132.50390625 C-117.66518226 106.96356448 -112.80497971 80.81001878 -100.3125 58.3125 C-101.23482422 57.92578125 -101.23482422 57.92578125 -102.17578125 57.53125 C-106.06468916 55.31307949 -107.35596936 51.22556128 -109.3125 47.3125 C-109.96124658 41.2991182 -109.52148147 35.5403771 -106.3125 30.3125 C-101.10033712 24.58137718 -96.29355168 21.32895693 -88.5 20.9375 C-83.96797835 21.00504131 -80.93983354 22.08553817 -77.1015625 24.4375 C-75.04555207 25.60540056 -75.04555207 25.60540056 -71.3125 25.3125 C-69.20073198 23.8937947 -67.24278556 22.44460495 -65.25 20.875 C-46.35155077 6.73664837 -23.49421269 -0.12279525 0 0 Z M-59.3125 28.3125 C-60.23933594 28.86679687 -61.16617188 29.42109375 -62.12109375 29.9921875 C-64.61202785 31.61654078 -66.48718563 32.96234969 -68.3125 35.3125 C-68.80116663 38.19260597 -68.69202287 40.69403902 -68.45703125 43.6015625 C-68.2383025 47.70420439 -69.14503505 50.83695094 -71.3125 54.3125 C-75.92518188 59.42631275 -80.56039065 62.12393557 -87.4375 62.625 C-91.36948368 62.8577186 -91.36948368 62.8577186 -92.875 65.48828125 C-93.349375 66.42027344 -93.82375 67.35226562 -94.3125 68.3125 C-94.78429687 69.21742188 -95.25609375 70.12234375 -95.7421875 71.0546875 C-107.91452399 97.4390493 -108.53333509 126.56287856 -98.5625 153.75 C-89.96274388 175.6938257 -74.37558807 193.97298938 -54.3125 206.3125 C-53.7457959 206.66441406 -53.1790918 207.01632812 -52.59521484 207.37890625 C-29.79877562 221.24999248 -1.14522352 225.49499302 24.8125 219.25 C45.05786141 213.96461353 61.939117 204.060883 76.6875 189.3125 C77.41582031 188.58417969 78.14414062 187.85585938 78.89453125 187.10546875 C89.3355362 176.00546546 96.36055707 162.4748315 101.6875 148.3125 C101.92903809 147.67103027 102.17057617 147.02956055 102.41943359 146.36865234 C106.0094379 136.18760358 106.06882124 125.73066394 106.125 115.0625 C106.13466797 114.04044464 106.13466797 114.04044464 106.14453125 112.9977417 C106.31005505 84.35953754 94.07871951 59.75413839 74.3125 39.625 C62.87773608 28.28328127 49.15616434 20.41845875 34.0625 14.9375 C33.41917725 14.69894287 32.77585449 14.46038574 32.11303711 14.21459961 C1.35635775 3.63876616 -32.94002449 10.59186428 -59.3125 28.3125 Z " fill="#070707" transform="translate(703.3125,262.6875)"/>
<path d="M0 0 C4.74668387 2.10374443 7.59233451 4.46220616 9.78515625 9.3046875 C10.78849017 14.93798942 9.842813 19.61116014 7.0625 24.578125 C4.38687406 28.19472031 0.95821551 29.91366775 -3.21484375 31.3046875 C-9.27992734 32.1537992 -12.45585451 30.30737208 -17.296875 27.0078125 C-20.24023994 24.39415239 -21.08403368 22.39679948 -21.55078125 18.5 C-21.68425038 8.00932606 -21.68425038 8.00932606 -17.21484375 3.3046875 C-11.89747028 -1.39438673 -6.66227491 -2.09150782 0 0 Z " fill="#F6F6F5" transform="translate(736.21484375,318.6953125)"/>
</svg>
