<?xml version="1.0" encoding="UTF-8"?>
<svg version="1.1" xmlns="http://www.w3.org/2000/svg" width="1408" height="736">
<path d="M0 0 C464.64 0 929.28 0 1408 0 C1408 242.88 1408 485.76 1408 736 C943.36 736 478.72 736 0 736 C0 493.12 0 250.24 0 0 Z " fill="#FBFCFC" transform="translate(0,0)"/>
<path d="M0 0 C0.67740234 0.29471191 1.35480469 0.58942383 2.05273438 0.89306641 C10.95360795 4.83693274 18.78792984 9.37269229 26 16 C26.70511719 16.63679688 27.41023437 17.27359375 28.13671875 17.9296875 C42.13752034 31.21044787 50.59972128 49.49979929 51.23828125 68.72265625 C51.62769125 90.85122711 47.37398244 111.18374775 32 128 C31.19949219 128.89203125 30.39898437 129.7840625 29.57421875 130.703125 C15.4823213 145.6311553 -3.18013014 154.39603557 -23.69921875 155.21484375 C-44.8420227 155.76639516 -63.57424983 150.64256709 -80 137 C-80.92425781 136.26136719 -81.84851563 135.52273438 -82.80078125 134.76171875 C-97.16757181 122.62048911 -107.18363094 103.77755611 -109 85 C-110.59418633 59.25578861 -104.83778507 39.41826943 -88.0234375 19.6796875 C-66.31755269 -3.65210629 -29.54884501 -13.21962725 0 0 Z " fill="#010101" transform="translate(384,299)"/>
<path d="M0 0 C1.65756265 1.46601073 3.30397569 2.94475095 4.9375 4.4375 C5.76121094 5.12070312 6.58492187 5.80390625 7.43359375 6.5078125 C22.83540778 19.53087522 33.66263022 37.39055276 39.9375 56.4375 C40.24429688 57.35917969 40.55109375 58.28085937 40.8671875 59.23046875 C49.32929866 87.15543559 44.47085753 120.32159374 30.97265625 145.74609375 C25.91601674 155.00590141 20.24796546 162.82145238 12.9375 170.4375 C11.70386719 171.78328125 11.70386719 171.78328125 10.4453125 173.15625 C-6.89938049 191.47883369 -32.85563453 204.31825363 -58.25952148 205.59863281 C-88.58031061 205.97048135 -88.58031061 205.97048135 -100.0625 202.4375 C-100.71895508 202.24414062 -101.37541016 202.05078125 -102.05175781 201.8515625 C-131.80049552 192.9393193 -156.16467757 172.6435979 -171.43359375 145.6484375 C-174.42567505 139.75037795 -176.77302451 133.63583609 -179.0625 127.4375 C-179.3821875 126.6021875 -179.701875 125.766875 -180.03125 124.90625 C-184.08981208 113.70461865 -184.47211967 102.0320605 -184.4375 90.25 C-184.43662384 89.52039063 -184.43574768 88.79078125 -184.43484497 88.0390625 C-184.36384356 70.11427736 -180.24281354 55.77890322 -173.0625 39.4375 C-172.38758336 37.77415706 -171.71686113 36.10903634 -171.0625 34.4375 C-171.825625 33.756875 -172.58875 33.07625 -173.375 32.375 C-178.5317762 26.73852369 -179.70282425 21.64983531 -179.4765625 14.15234375 C-178.58799559 8.3263626 -175.27209233 4.30360477 -170.9375 0.5 C-165.18872695 -3.6241198 -158.89757799 -3.05913744 -152.0625 -2.5625 C-148.5 -1.125 -148.5 -1.125 -146.0625 0.4375 C-144.26530943 1.41494351 -144.26530943 1.41494351 -142.0625 1.4375 C-139.24817921 -0.1680228 -139.24817921 -0.1680228 -136.3125 -2.5 C-96.46997094 -31.61151642 -38.79345497 -31.2973995 0 0 Z M-98.0625 -10.5625 C-99.58919312 -10.11197266 -99.58919312 -10.11197266 -101.14672852 -9.65234375 C-113.78887837 -5.84786509 -124.6546892 0.42440673 -135.0625 8.4375 C-136.0525 9.0975 -137.0425 9.7575 -138.0625 10.4375 C-138.5373803 13.58420208 -138.5373803 13.58420208 -138.5625 17.1875 C-138.73796658 24.05994112 -139.89007803 28.35953116 -144.9375 33.1875 C-148.32052143 35.62327543 -150.88168599 37.42853915 -155.14208984 37.44604492 C-157.64040871 37.48313304 -159.67663534 37.67968423 -162.0625 38.4375 C-164.283788 40.80223263 -165.26320376 43.48354644 -166.375 46.5 C-166.70056885 47.30260254 -167.0261377 48.10520508 -167.36157227 48.93212891 C-170.36220523 56.58746463 -172.35773747 64.4048901 -174.0625 72.4375 C-174.2375708 73.05020752 -174.4126416 73.66291504 -174.59301758 74.29418945 C-177.51874272 87.65089304 -175.81058207 104.40267208 -172.0625 117.4375 C-171.73378906 118.63761719 -171.40507812 119.83773437 -171.06640625 121.07421875 C-166.63536233 135.7472604 -159.54788602 149.19847686 -149.0625 160.4375 C-148.58296875 160.95795898 -148.1034375 161.47841797 -147.609375 162.01464844 C-131.0296474 179.86088301 -111.04921498 191.10907023 -87.0625 195.4375 C-86.12792969 195.62828125 -85.19335938 195.8190625 -84.23046875 196.015625 C-57.87745357 199.52502776 -29.41585981 193.01950683 -8.05224609 176.92285156 C14.90093489 158.61608607 31.17583554 133.52072581 34.70605469 103.93798828 C37.11617489 77.89953774 32.40163346 52.91935055 16.9375 31.4375 C16.42960938 30.70789063 15.92171875 29.97828125 15.3984375 29.2265625 C-1.06470163 6.76208202 -23.61155077 -5.58198777 -50.0625 -12.5625 C-50.65264893 -12.74280762 -51.24279785 -12.92311523 -51.85083008 -13.10888672 C-56.9093061 -14.14637965 -62.22508643 -13.78884794 -67.37695312 -13.80273438 C-69.52775182 -13.81234474 -71.67755419 -13.84334486 -73.828125 -13.875 C-82.28977177 -13.93985896 -89.93960147 -13.10100045 -98.0625 -10.5625 Z " fill="#060606" transform="translate(427.0625,282.5625)"/>
<path d="M0 0 C6.06820156 4.78237446 9.04728998 10.50310996 10.06640625 18.140625 C10.35094023 25.4702203 8.57933698 31.54563715 4.7890625 37.78125 C-0.63975615 43.58390946 -8.55157462 46.92687555 -16.3984375 47.28125 C-24.09641004 46.83791127 -30.43878914 43.92905513 -35.7109375 38.28125 C-41.39126938 30.76647666 -42.44893354 22.89500506 -41.2734375 13.59375 C-38.96963549 6.21490588 -33.74711651 1.52938905 -27.2734375 -2.40625 C-18.22563142 -6.05711912 -8.30086744 -5.13455718 0 0 Z " fill="#080809" transform="translate(771.2734375,365.40625)"/>
<path d="M0 0 C2.00421929 -0.03195794 4.00773115 -0.10125014 6.01098633 -0.17114258 C13.19425203 -0.25445832 18.05887491 -0.05723441 23.55371094 4.82714844 C27.24409644 8.9273653 28.55279369 12.77154747 28.3293457 18.31518555 C27.51521154 23.10157873 25.36671503 27.09412287 21.84887695 30.4050293 C19.97387695 31.4050293 19.97387695 31.4050293 17.97387695 31.4050293 C20.36300629 35.88845924 22.764355 40.24984814 25.78637695 44.3425293 C27.97387695 47.4050293 27.97387695 47.4050293 27.97387695 49.4050293 C24.1741807 49.95267235 20.75201066 50.17522735 16.97387695 49.4050293 C14.18005905 46.80043412 12.65068291 43.80426858 10.97387695 40.4050293 C10.35512695 39.4356543 9.73637695 38.4662793 9.09887695 37.4675293 C7.97387695 35.4050293 7.97387695 35.4050293 7.97387695 33.4050293 C4.34387695 33.4050293 0.71387695 33.4050293 -3.02612305 33.4050293 C-3.02612305 38.6850293 -3.02612305 43.9650293 -3.02612305 49.4050293 C-6.32612305 49.4050293 -9.62612305 49.4050293 -13.02612305 49.4050293 C-13.05076552 42.58740506 -13.06895549 35.7698065 -13.08105469 28.95214844 C-13.08609638 26.63085478 -13.09292956 24.30956432 -13.1015625 21.98828125 C-13.11363529 18.65974135 -13.11935283 15.33124328 -13.1237793 12.00268555 C-13.12894058 10.95790543 -13.13410187 9.91312531 -13.13941956 8.83668518 C-13.13949509 7.87576462 -13.13957062 6.91484406 -13.13964844 5.92480469 C-13.14186905 5.07431046 -13.14408966 4.22381622 -13.14637756 3.34754944 C-12.81775139 -1.96088286 -3.98569433 0.04768384 0 0 Z " fill="#0C0C0D" transform="translate(602.026123046875,361.594970703125)"/>
<path d="M0 0 C4.269375 -0.103125 8.53875 -0.20625 12.9375 -0.3125 C14.26515381 -0.35802002 15.59280762 -0.40354004 16.96069336 -0.45043945 C24.43390998 -0.53734384 30.08006479 0.17287276 36 5 C39.35916566 8.74976632 40.66662353 12.87876805 40.390625 17.9453125 C39.48458724 22.71107113 37.39714887 26.68503636 33.875 30 C32 31 32 31 30 31 C30.62648438 31.96421875 31.25296875 32.9284375 31.8984375 33.921875 C32.72406631 35.1978468 33.54958116 36.47389235 34.375 37.75 C34.99375 38.70132813 34.99375 38.70132813 35.625 39.671875 C37.58941624 42.71355176 39.48420908 45.70190547 41 49 C36.72536922 49.9113426 33.23574989 50.19430941 29 49 C24.91293296 45.22224681 22.35791618 39.96591437 20 35 C20 34.34 20 33.68 20 33 C16.37 33 12.74 33 9 33 C9 38.28 9 43.56 9 49 C6.03 49 3.06 49 0 49 C0 32.83 0 16.66 0 0 Z " fill="#060607" transform="translate(993,362)"/>
<path d="M0 0 C28.83333333 0 28.83333333 0 36.125 7 C39.10173832 11.90473253 38.82830332 17.48564735 38 23 C35.33322772 28.53108324 31.61279309 31.93355384 25.9375 34.25 C20.7400216 35.56669453 15.31170468 35.11936415 10 35 C10 39.62 10 44.24 10 49 C6.7 49 3.4 49 0 49 C0 32.83 0 16.66 0 0 Z " fill="#070809" transform="translate(839,362)"/>
<path d="M0 0 C1.23556641 0.01740234 1.23556641 0.01740234 2.49609375 0.03515625 C3.32238281 0.04417969 4.14867187 0.05320312 5 0.0625 C5.63808594 0.07410156 6.27617188 0.08570313 6.93359375 0.09765625 C9.46160792 5.84462446 11.98832909 11.59215986 14.51416016 17.34008789 C15.37323862 19.29464533 16.23261096 21.24907365 17.09228516 23.20336914 C18.32922758 26.01544691 19.565106 28.82799022 20.80078125 31.640625 C21.18418671 32.51164352 21.56759216 33.38266205 21.96261597 34.28007507 C22.9591883 36.54995252 23.94864199 38.82271707 24.93359375 41.09765625 C25.34883301 42.05583252 25.76407227 43.01400879 26.19189453 44.0012207 C26.93359375 46.09765625 26.93359375 46.09765625 26.93359375 49.09765625 C23.63359375 49.09765625 20.33359375 49.09765625 16.93359375 49.09765625 C15.61359375 45.79765625 14.29359375 42.49765625 12.93359375 39.09765625 C5.34359375 38.76765625 -2.24640625 38.43765625 -10.06640625 38.09765625 C-10.56140625 40.57265625 -10.56140625 40.57265625 -11.06640625 43.09765625 C-11.71030407 45.1051024 -12.37202878 47.10710749 -13.06640625 49.09765625 C-16.36640625 49.09765625 -19.66640625 49.09765625 -23.06640625 49.09765625 C-22.5020539 44.77680862 -21.45289489 41.31894302 -19.58984375 37.38671875 C-18.83537964 35.7768811 -18.83537964 35.7768811 -18.06567383 34.13452148 C-17.26166138 32.44564819 -17.26166138 32.44564819 -16.44140625 30.72265625 C-15.34766304 28.39383707 -14.25521284 26.06441018 -13.1640625 23.734375 C-12.63312988 22.60306152 -12.10219727 21.47174805 -11.55517578 20.30615234 C-9.29151886 15.42767099 -7.14394124 10.50202548 -5.03466797 5.55517578 C-2.70569122 0.12786821 -2.70569122 0.12786821 0 0 Z " fill="#080808" transform="translate(659.06640625,361.90234375)"/>
<path d="M0 0 C3.3 0 6.6 0 10 0 C10 6.6 10 13.2 10 20 C16.93 20 23.86 20 31 20 C31 13.4 31 6.8 31 0 C34.3 0 37.6 0 41 0 C41 16.17 41 32.34 41 49 C37.7 49 34.4 49 31 49 C31 42.4 31 35.8 31 29 C24.07 29 17.14 29 10 29 C10 35.6 10 42.2 10 49 C6.7 49 3.4 49 0 49 C0 32.83 0 16.66 0 0 Z " fill="#121213" transform="translate(888,362)"/>
<path d="M0 0 C11.88 0 23.76 0 36 0 C36 2.97 36 5.94 36 9 C27.09 9 18.18 9 9 9 C9 12.63 9 16.26 9 20 C16.92 20 24.84 20 33 20 C33 22.97 33 25.94 33 29 C25.08 29 17.16 29 9 29 C9 32.63 9 36.26 9 40 C18.24 40 27.48 40 37 40 C37 42.97 37 45.94 37 49 C24.79 49 12.58 49 0 49 C0 32.83 0 16.66 0 0 Z " fill="#080809" transform="translate(1045,362)"/>
<path d="M0 0 C11.88 0 23.76 0 36 0 C36 2.97 36 5.94 36 9 C27.09 9 18.18 9 9 9 C9 12.63 9 16.26 9 20 C16.92 20 24.84 20 33 20 C33 22.97 33 25.94 33 29 C25.08 29 17.16 29 9 29 C9 32.63 9 36.26 9 40 C18.24 40 27.48 40 37 40 C37 42.97 37 45.94 37 49 C24.79 49 12.58 49 0 49 C0 32.83 0 16.66 0 0 Z " fill="#0A0A0B" transform="translate(944,362)"/>
<path d="M0 0 C1.06250977 0.00483398 1.06250977 0.00483398 2.14648438 0.00976562 C7.84935569 0.16191215 11.49120272 1.30663515 16.1875 4.4375 C15.64026317 7.81212715 15.1326 9.51985 13.1875 12.4375 C8.58476027 11.67037671 8.58476027 11.67037671 6.375 10.375 C2.89560742 8.88383175 -0.03826285 9.1978659 -3.8125 9.4375 C-4.8025 10.0975 -5.7925 10.7575 -6.8125 11.4375 C-7.0627157 14.52115871 -7.0627157 14.52115871 -6.8125 17.4375 C-6.20664062 17.60765625 -5.60078125 17.7778125 -4.9765625 17.953125 C14.18181818 23.49431818 14.18181818 23.49431818 18.1875 30.4375 C19.26667745 35.72758555 18.15805435 39.93045202 15.1875 44.4375 C9.93642905 49.28464242 5.95806462 50.84739065 -1.08203125 50.69140625 C-7.88749245 50.05856651 -13.81928334 48.2642761 -18.8125 43.4375 C-16.9375 38.6875 -16.9375 38.6875 -15.8125 36.4375 C-12.90949772 36.85221461 -11.07649938 37.24338281 -8.6875 39 C-4.28909381 41.19920309 0.34885684 41.03746058 5.1875 40.4375 C7.47478734 38.59866119 7.47478734 38.59866119 7.3125 35.8125 C7.27125 35.02875 7.23 34.245 7.1875 33.4375 C3.19446285 31.61459174 -0.6291156 30.1865995 -4.875 29.0625 C-9.61533677 27.68953661 -12.36977795 25.96849697 -15.8125 22.4375 C-17.68914991 16.80755027 -17.74999151 11.34720492 -15.125 6 C-10.60984856 0.99672408 -6.61196008 -0.09277774 0 0 Z " fill="#090909" transform="translate(808.8125,361.5625)"/>
<path d="M0 0 C2.77029855 1.15429106 5.14605198 2.72367007 7.640625 4.38671875 C6.51610773 7.35865725 5.41768709 9.72112562 3.640625 12.38671875 C2.939375 12.09796875 2.238125 11.80921875 1.515625 11.51171875 C-5.69271391 8.65100607 -5.69271391 8.65100607 -13.359375 8.38671875 C-15.33967182 9.45016927 -15.33967182 9.45016927 -16.359375 11.38671875 C-16.40420183 13.05278247 -16.40845354 14.72077485 -16.359375 16.38671875 C-15.75351562 16.556875 -15.14765625 16.72703125 -14.5234375 16.90234375 C3.6274463 22.15213783 3.6274463 22.15213783 7.640625 27.38671875 C9.3712136 30.84789595 8.98585266 34.59560759 8.640625 38.38671875 C6.86969526 43.60112299 4.39403532 45.71292544 -0.359375 48.38671875 C-6.50124268 50.43400798 -12.77479235 50.38842705 -18.81640625 48.046875 C-21.72588215 46.58005737 -24.56058882 45.05408073 -27.359375 43.38671875 C-27.359375 39.11845002 -26.98323987 38.44789443 -24.359375 35.38671875 C-23.699375 35.65484375 -23.039375 35.92296875 -22.359375 36.19921875 C-21.369375 36.59109375 -20.379375 36.98296875 -19.359375 37.38671875 C-18.73160156 37.65097656 -18.10382813 37.91523438 -17.45703125 38.1875 C-13.30782896 39.86788711 -9.90855049 41.00706086 -5.359375 40.38671875 C-3.01675892 39.00745102 -3.01675892 39.00745102 -1.359375 37.38671875 C-1.39030673 34.97086301 -1.39030673 34.97086301 -2.359375 32.38671875 C-5.80631919 30.08875596 -9.41444814 29.06189043 -13.359375 27.94921875 C-18.19525246 26.55089274 -22.73702613 25.04401431 -25.4921875 20.53125 C-26.98548162 16.838374 -26.90349975 13.29761538 -26.359375 9.38671875 C-21.09384143 -1.34686891 -10.94218587 -2.84424368 0 0 Z " fill="#080808" transform="translate(524.359375,362.61328125)"/>
<path d="M0 0 C4.09841198 2.31544141 6.38380706 4.90930077 7.75 9.4375 C8.57044121 15.38805633 8.26604672 20.39783304 4.75 25.4375 C0.77877534 29.43042534 -2.41274764 31.31896759 -8.125 31.6875 C-11.98922871 31.61685597 -14.18229511 30.92482829 -17.25 28.4375 C-22.34932238 23.02037283 -23.61976424 19.62498826 -23.5234375 12.265625 C-23.05744494 7.44593048 -21.48761499 4.34088895 -17.70703125 1.125 C-11.96906195 -2.65654498 -6.18715663 -2.65163856 0 0 Z " fill="#F9F9F9" transform="translate(763.25,371.5625)"/>
<path d="M0 0 C5.36787898 1.88869816 8.45991584 4.91983169 11 10 C11.62596915 15.61319879 11.61128432 20.73037581 8.390625 25.52734375 C4.76742309 29.36427386 0.15794444 31.18575965 -5.0625 31.5 C-11.03460831 30.74163704 -14.32139465 28.76468768 -18.4375 24.4375 C-20.65455898 19.55997025 -20.77008689 15.27273777 -20 10 C-15.84156415 1.20330878 -9.18932295 -1.22723857 0 0 Z " fill="#F6F7F6" transform="translate(388,314)"/>
<path d="M0 0 C12.87 0 25.74 0 39 0 C39 2.97 39 5.94 39 9 C34.05 9 29.1 9 24 9 C24 22.2 24 35.4 24 49 C20.7 49 17.4 49 14 49 C14 35.8 14 22.6 14 9 C9.38 9 4.76 9 0 9 C0 6.03 0 3.06 0 0 Z " fill="#0A0A0B" transform="translate(540,362)"/>
<path d="M0 0 C13.2 0 26.4 0 40 0 C40 2.97 40 5.94 40 9 C34.72 9 29.44 9 24 9 C24 22.2 24 35.4 24 49 C21.03 49 18.06 49 15 49 C15 35.8 15 22.6 15 9 C10.05 9 5.1 9 0 9 C0 6.03 0 3.06 0 0 Z " fill="#070707" transform="translate(685,362)"/>
<path d="M0 0 C2.536875 -0.103125 5.07375 -0.20625 7.6875 -0.3125 C8.47729248 -0.35802002 9.26708496 -0.40354004 10.08081055 -0.45043945 C14.17759491 -0.53072793 15.62077771 -0.2958331 18.984375 2.328125 C21 5 21 5 21.5625 8.0625 C20.88178485 11.61734581 19.79927541 12.777046 17 15 C13.93618406 16.53190797 10.73034134 16.10243613 7.375 16.0625 C4.94125 16.041875 2.5075 16.02125 0 16 C0 10.72 0 5.44 0 0 Z " fill="#F3F3F3" transform="translate(1002,371)"/>
<path d="M0 0 C3.5578125 -0.0928125 3.5578125 -0.0928125 7.1875 -0.1875 C8.29387817 -0.22846802 8.29387817 -0.22846802 9.42260742 -0.27026367 C13.827366 -0.32558339 16.5179177 0.29171377 20 3 C21.42041821 5.84083641 21.31452272 7.85477278 21 11 C19.1329009 13.30275556 17.64352259 14.67823871 15 16 C12.44612508 16.07173806 9.92723239 16.09287732 7.375 16.0625 C4.94125 16.041875 2.5075 16.02125 0 16 C0 10.72 0 5.44 0 0 Z " fill="#F6F6F7" transform="translate(599,371)"/>
<path d="M0 0 C14.19642857 -0.66964286 14.19642857 -0.66964286 17.875 2.125 C20 5 20 5 20.625 8 C19.86972422 11.62532374 18.56159665 13.36306228 16 16 C11.53794887 18.23102556 4.78092876 17.04346299 0 17 C0 11.39 0 5.78 0 0 Z " fill="#F3F4F5" transform="translate(848,371)"/>
<path d="M0 0 C3.5852716 2.39018107 4.0974124 3.99809377 5.6875 7.9375 C6.34298828 9.52884766 6.34298828 9.52884766 7.01171875 11.15234375 C8 14 8 14 8 17 C3.05 17 -1.9 17 -7 17 C-6.02412745 14.35290841 -5.04447855 11.70732553 -4.0625 9.0625 C-3.78470703 8.30775391 -3.50691406 7.55300781 -3.22070312 6.77539062 C-1.11328125 1.11328125 -1.11328125 1.11328125 0 0 Z " fill="#E8E9E9" transform="translate(660,375)"/>
</svg>
